<svg xmlns="http://www.w3.org/2000/svg" width="182.256" height="60" viewBox="0 0 182.256 60">
  <g id="Logo" transform="translate(-93.919 -31.998)">
    <path id="Path_11370" data-name="Path 11370" d="M63.21,27.137,33.609.588a2.452,2.452,0,0,0-3.192,0L21.524,8.566V5.88a1.61,1.61,0,0,0-1.607-1.606H16.971A1.61,1.61,0,0,0,15.364,5.88v8.212L.818,27.137c-.878.787-.632,1.433.546,1.433H4.159A2.149,2.149,0,0,1,6.3,30.713V57.855A2.149,2.149,0,0,0,8.444,60H55.585a2.149,2.149,0,0,0,2.141-2.143V30.713a2.149,2.149,0,0,1,2.143-2.143h2.795c1.178,0,1.424-.644.546-1.433ZM44.219,46.44a14.444,14.444,0,0,1-5.338,4.812c-.261.141-.527.268-.8.388A14.414,14.414,0,0,1,32.163,52.9,14.091,14.091,0,0,1,17.705,38.886c0-.154,0-.31.01-.463a14.179,14.179,0,0,1,.315-2.574,14.461,14.461,0,0,1,27.043-3.488,2.352,2.352,0,0,1,.117,1.826,2.322,2.322,0,0,1-1.234,1.346l-.578.263-.124.054-2.361,1.068-3.321,1.506-7.616,3.449-1.653.751a2.321,2.321,0,0,1-.956.21h-.01a2.33,2.33,0,0,1-2.173-3.149,2.3,2.3,0,0,1,.361-.634,2.2,2.2,0,0,1,.78-.626.389.389,0,0,1,.078-.039l1.541-.7,4.055-1.835,7.1-3.218.463-.21a9.836,9.836,0,0,0-9.915-3.005,9.793,9.793,0,0,0-7.26,9c-.01.154-.012.31-.012.463s0,.31.012.463a9.208,9.208,0,0,0,4.78,7.625,10.253,10.253,0,0,0,5.014,1.277,9.787,9.787,0,0,0,7.957-4.073c.076-.1.146-.21.217-.314a2.334,2.334,0,0,1,3.231-.653,1.8,1.8,0,0,1,.176.129,2.28,2.28,0,0,1,.656.848,2.337,2.337,0,0,1-.18,2.252Z" transform="translate(93.627 32)" fill="#fff"/>
    <text id="eBroker" transform="translate(167.176 73.665)" fill="#fff" font-size="29" font-family="Rubik-Medium, Rubik" font-weight="500" letter-spacing="-0.02em"><tspan x="0" y="0">eB</tspan><tspan y="0" letter-spacing="-0.01em">r</tspan><tspan y="0">o</tspan><tspan y="0" letter-spacing="-0.03em">k</tspan><tspan y="0">e</tspan><tspan y="0" letter-spacing="-0.02em">r</tspan></text>
  </g>
</svg>
