<svg xmlns="http://www.w3.org/2000/svg" width="57" height="57" viewBox="0 0 57 57">
  <path id="ic_app_store" d="M30.5,2A28.5,28.5,0,1,1,2,30.5,28.5,28.5,0,0,1,30.5,2ZM21.444,40.027a3.941,3.941,0,0,0-4.214-1.45l-.429.117-1.678,2.9a2.348,2.348,0,0,0,3.891,2.61l.177-.266Zm12.5-19.042a6.474,6.474,0,0,0-.827,7.941l8.665,15.008a2.347,2.347,0,0,0,4.208-2.057l-.14-.287-2.287-3.965h3.39a2.345,2.345,0,0,0,.295-4.671l-.295-.018h-6.1L34.6,22.114Zm.793-8.676a2.351,2.351,0,0,0-3.03.6l-.177.266-1.046,1.8-1.023-1.8a2.347,2.347,0,0,0-4.208,2.057l.14.287,2.39,4.149L20.134,32.925H14.158a2.345,2.345,0,0,0-.295,4.671l.295.018H35.476a3.25,3.25,0,0,0-2.309-4.669l-.345-.02H25.547L35.6,15.515A2.347,2.347,0,0,0,34.741,12.308Z" transform="translate(-2 -2)" fill="#fff"/>
</svg>
